<svg xmlns="http://www.w3.org/2000/svg" viewBox="0 -0.031017765402793884 98.72420501708984 100.04639434814453"><ellipse cx="15.07" cy="41.59" rx="15.07" ry="14.94" fill="#f65246"></ellipse><ellipse cx="72.6" cy="21.16" rx="14.08" ry="13.96" fill="#f65246"></ellipse><ellipse cx="66.02" cy="79.22" rx="17.02" ry="16.87" fill="#7ca557"></ellipse><ellipse cx="62.47" cy="46.97" rx="10.17" ry="10.08" fill="#03a39e"></ellipse><ellipse cx="82.24" cy="47.71" rx="7.17" ry="7.11" fill="#7ca557"></ellipse><ellipse cx="32.67" cy="84.81" rx="11.32" ry="11.22" fill="#03a39e"></ellipse><path d="M90.48 71.47a8.41 8.41 0 1 1 7.68-9.13 8.45 8.45 0 0 1-7.68 9.13zM45.77 22.39a11.22 11.22 0 1 1-2-22.34 11.22 11.22 0 1 1 2 22.34z" fill="#03a39e"></path><path d="M47.63 62a4.33 4.33 0 1 1 3.95-4.71A4.36 4.36 0 0 1 47.63 62zM48.42 100a4.63 4.63 0 1 1 4.24-5 4.67 4.67 0 0 1-4.24 5z" fill="#f65246"></path><path d="M3.4 61.91a3 3 0 1 1 2.77-3.29 3.05 3.05 0 0 1-2.77 3.29z" fill="#7ca557"></path><path d="M14.12 84.3a3 3 0 1 1 2.77-3.3 3.05 3.05 0 0 1-2.77 3.3z" fill="#f65246"></path><path d="M15.36 22a3 3 0 1 1 2.77-3.29A3.05 3.05 0 0 1 15.36 22z" fill="#03a39e"></path><path d="M32.53 31a4.64 4.64 0 1 1 4.25-5 4.68 4.68 0 0 1-4.25 5z" fill="#f93e4e"></path><path d="M61.7 6.86a3 3 0 1 1-.55-6 3 3 0 1 1 .55 6z" fill="#7ca557"></path><path d="M94.21 45.17a4.93 4.93 0 1 1 4.5-5.35 5 5 0 0 1-4.5 5.35z" fill="#f65246"></path><path d="M30.3 62.23a3.55 3.55 0 1 1 3.25-3.85 3.56 3.56 0 0 1-3.25 3.85z" fill="#7ca557"></path><path d="M39 51.57a6.63 6.63 0 1 1 6.05-7.2 6.68 6.68 0 0 1-6.05 7.2z" fill="#03a39e"></path><path d="M88.69 80.65a2.68 2.68 0 1 1 2.45-2.91 2.69 2.69 0 0 1-2.45 2.91zM17.65 74.94a7.73 7.73 0 1 1 7.07-8.39 7.77 7.77 0 0 1-7.07 8.39zM39.59 72.92a5.61 5.61 0 1 1 5.12-6.09 5.65 5.65 0 0 1-5.12 6.09z" fill="#fc9138"></path><ellipse cx="49.32" cy="32.83" rx="6.97" ry="6.91" fill="#7ca557"></ellipse><path d="M25.88 18.62A5.61 5.61 0 1 1 31 12.53a5.64 5.64 0 0 1-5.12 6.09zM92 32.17a3.77 3.77 0 1 1 3.44-4.09A3.78 3.78 0 0 1 92 32.17z" fill="#fc9138"></path></svg>